<?xml version="1.0" encoding="UTF-8" standalone="no"?>
<svg
   xmlns:dc="http://purl.org/dc/elements/1.1/"
   xmlns:cc="http://creativecommons.org/ns#"
   xmlns:rdf="http://www.w3.org/1999/02/22-rdf-syntax-ns#"
   xmlns:svg="http://www.w3.org/2000/svg"
   xmlns="http://www.w3.org/2000/svg"
   xmlns:xlink="http://www.w3.org/1999/xlink"
   version="1.1"
   id="svg2"
   viewBox="0 0 1052.3622 744.09448"
   height="210mm"
   width="297mm">
  <defs
     id="defs4" />
  <metadata
     id="metadata7">
    <rdf:RDF>
      <cc:Work
         rdf:about="">
        <dc:format>image/svg+xml</dc:format>
        <dc:type
           rdf:resource="http://purl.org/dc/dcmitype/StillImage" />
        <dc:title></dc:title>
      </cc:Work>
    </rdf:RDF>
  </metadata>
  <g
     transform="translate(0,-308.26772)"
     id="layer1">
    <g
       transform="translate(8.6972083,-46.787056)"
       id="g4339">
      <path
         style="fill:none;fill-rule:evenodd;stroke:none;stroke-width:1px;stroke-linecap:butt;stroke-linejoin:miter;stroke-opacity:1"
         d="m 88.582678,1052.3622 88.582682,-153.4297 88.58267,153.4297 88.58268,-153.4297 88.58268,153.4297 88.58268,-153.4297 c 0,0 88.58267,153.4297 88.58267,153.4297 l 88.58268,-153.4297 88.58268,153.4297 88.58268,-153.4297 88.58267,153.4297 -885.826772,0 0,0 z"
         id="path4258" />
      <path
         style="fill:none;fill-rule:evenodd;stroke:none;stroke-width:1px;stroke-linecap:butt;stroke-linejoin:miter;stroke-opacity:1"
         d="m 177.16536,898.9325 -88.582682,-153.4297 177.165352,0 -88.58267,153.4297 177.16535,0 -88.58268,-153.4297 177.16536,0 -88.58268,153.4297 177.16536,0 -88.58268,-153.4297 177.16535,0 -88.58267,153.4297 177.16535,0 -88.58268,-153.4297 177.16536,0 -88.58268,153.4297 177.16536,0 -88.58268,-153.4297 177.16535,0 -88.58267,153.4297 z"
         id="path4260" />
      <path
         style="color:#000000;clip-rule:nonzero;display:inline;overflow:visible;visibility:visible;opacity:1;isolation:auto;mix-blend-mode:normal;color-interpolation:sRGB;color-interpolation-filters:linearRGB;solid-color:#000000;solid-opacity:1;fill:#00ff00;fill-opacity:1;fill-rule:nonzero;stroke:none;stroke-width:1.99999988;stroke-linecap:round;stroke-linejoin:round;stroke-miterlimit:4;stroke-dasharray:none;stroke-dashoffset:0;stroke-opacity:1;color-rendering:auto;image-rendering:auto;shape-rendering:auto;text-rendering:auto;enable-background:accumulate"
         d="m 92.245106,739.93225 c 0.97692,-1.53754 20.409864,-35.11626 43.184324,-74.61938 22.77445,-39.50311 41.83498,-71.37217 42.35673,-70.82012 0.52175,0.55205 18.68089,31.75457 40.35366,69.33893 21.67276,37.58436 40.78825,70.71141 42.47885,73.61566 l 3.07383,5.28044 -86.6118,0 -86.611812,0 1.776218,-2.79553 z"
         id="path4262"
         transform="translate(0,308.26772)" />
      <path
         style="color:#000000;clip-rule:nonzero;display:inline;overflow:visible;visibility:visible;opacity:1;isolation:auto;mix-blend-mode:normal;color-interpolation:sRGB;color-interpolation-filters:linearRGB;solid-color:#000000;solid-opacity:1;fill:#00ff00;fill-opacity:1;fill-rule:nonzero;stroke:none;stroke-width:1.99999988;stroke-linecap:round;stroke-linejoin:round;stroke-miterlimit:4;stroke-dasharray:none;stroke-dashoffset:0;stroke-opacity:1;color-rendering:auto;image-rendering:auto;shape-rendering:auto;text-rendering:auto;enable-background:accumulate"
         d="m 222.21649,666.5802 -43.10359,-74.8111 43.4142,-0.32651 c 23.87781,-0.17958 62.87222,-0.17958 86.65425,0 l 43.24003,0.32651 -41.68696,72.166 c -22.92783,39.6913 -42.52563,73.3563 -43.55066,74.8111 -1.77145,2.51419 -3.99693,-1.05739 -44.96727,-72.166 z"
         id="path4264"
         transform="translate(0,308.26772)" />
      <path
         style="color:#000000;clip-rule:nonzero;display:inline;overflow:visible;visibility:visible;opacity:1;isolation:auto;mix-blend-mode:normal;color-interpolation:sRGB;color-interpolation-filters:linearRGB;solid-color:#000000;solid-opacity:1;fill:#00ff00;fill-opacity:1;fill-rule:nonzero;stroke:none;stroke-width:1.99999988;stroke-linecap:round;stroke-linejoin:round;stroke-miterlimit:4;stroke-dasharray:none;stroke-dashoffset:0;stroke-opacity:1;color-rendering:auto;image-rendering:auto;shape-rendering:auto;text-rendering:auto;enable-background:accumulate"
         d="m 623.92382,739.93225 c 3.76793,-7.09604 83.36688,-144.54883 84.20339,-145.40381 0.52091,-0.53242 19.58235,31.33664 42.35874,70.82012 22.7764,39.48349 42.22541,73.04615 43.22001,74.58369 l 1.80838,2.79553 -86.53746,0 -86.53747,0 1.48441,-2.79553 z"
         id="path4266"
         transform="translate(0,308.26772)" />
      <path
         style="color:#000000;clip-rule:nonzero;display:inline;overflow:visible;visibility:visible;opacity:1;isolation:auto;mix-blend-mode:normal;color-interpolation:sRGB;color-interpolation-filters:linearRGB;solid-color:#000000;solid-opacity:1;fill:#00ff00;fill-opacity:1;fill-rule:nonzero;stroke:none;stroke-width:1.99999988;stroke-linecap:round;stroke-linejoin:round;stroke-miterlimit:4;stroke-dasharray:none;stroke-dashoffset:0;stroke-opacity:1;color-rendering:auto;image-rendering:auto;shape-rendering:auto;text-rendering:auto;enable-background:accumulate"
         d="m 754.19061,667.31279 c -23.5554,-40.76706 -43.01436,-74.5816 -43.24215,-75.14342 -0.22778,-0.56183 38.49032,-1.0215 86.04024,-1.0215 47.54992,0 86.45439,0.32134 86.45439,0.71409 0,0.80116 -84.32902,147.24649 -85.60789,148.66621 -0.44913,0.4986 -20.0892,-32.44832 -43.64459,-73.21538 z"
         id="path4268"
         transform="translate(0,308.26772)" />
      <path
         style="color:#000000;clip-rule:nonzero;display:inline;overflow:visible;visibility:visible;opacity:1;isolation:auto;mix-blend-mode:normal;color-interpolation:sRGB;color-interpolation-filters:linearRGB;solid-color:#000000;solid-opacity:1;fill:#00ff00;fill-opacity:1;fill-rule:nonzero;stroke:none;stroke-width:1.99999988;stroke-linecap:round;stroke-linejoin:round;stroke-miterlimit:4;stroke-dasharray:none;stroke-dashoffset:0;stroke-opacity:1;color-rendering:auto;image-rendering:auto;shape-rendering:auto;text-rendering:auto;enable-background:accumulate"
         d="m 356.84784,588.83825 c 0.83452,-2.15032 86.00243,-149.2039 86.25523,-148.93099 0.51302,0.55384 82.79269,143.23233 84.53038,146.58139 l 1.77283,3.41676 -86.4863,0 c -47.67919,0 -86.30046,-0.47884 -86.07214,-1.06716 z"
         id="path4270"
         transform="translate(0,308.26772)" />
      <path
         style="color:#000000;clip-rule:nonzero;display:inline;overflow:visible;visibility:visible;opacity:1;isolation:auto;mix-blend-mode:normal;color-interpolation:sRGB;color-interpolation-filters:linearRGB;solid-color:#000000;solid-opacity:1;fill:#00ff00;fill-opacity:1;fill-rule:nonzero;stroke:none;stroke-width:1.99999988;stroke-linecap:round;stroke-linejoin:round;stroke-miterlimit:4;stroke-dasharray:none;stroke-dashoffset:0;stroke-opacity:1;color-rendering:auto;image-rendering:auto;shape-rendering:auto;text-rendering:auto;enable-background:accumulate"
         d="m 488.10888,513.24285 -42.89004,-74.29613 85.74636,-0.31918 c 47.16051,-0.17554 85.95662,-0.10893 86.21358,0.14803 0.54683,0.54683 -82.43563,144.76506 -84.67002,147.15109 -1.2056,1.28742 -10.15242,-13.35876 -44.39988,-72.68381 z"
         id="path4272"
         transform="translate(0,308.26772)" />
      <path
         style="color:#000000;clip-rule:nonzero;display:inline;overflow:visible;visibility:visible;opacity:1;isolation:auto;mix-blend-mode:normal;color-interpolation:sRGB;color-interpolation-filters:linearRGB;solid-color:#000000;solid-opacity:1;fill:#0000ff;fill-opacity:1;fill-rule:nonzero;stroke:none;stroke-width:1.99999988;stroke-linecap:round;stroke-linejoin:round;stroke-miterlimit:4;stroke-dasharray:none;stroke-dashoffset:0;stroke-opacity:1;color-rendering:auto;image-rendering:auto;shape-rendering:auto;text-rendering:auto;enable-background:accumulate"
         d="m 180.46156,587.10988 c 0.97797,-1.53754 20.39542,-35.08392 43.14989,-74.5475 22.75447,-39.46358 41.72711,-71.7491 42.16142,-71.7456 0.8321,0.007 85.89806,146.82927 85.89806,148.25873 0,0.45644 -38.92218,0.8299 -86.49375,0.8299 l -86.49375,0 1.77813,-2.79553 z"
         id="path4274"
         transform="translate(0,308.26772)" />
      <path
         style="color:#000000;clip-rule:nonzero;display:inline;overflow:visible;visibility:visible;opacity:1;isolation:auto;mix-blend-mode:normal;color-interpolation:sRGB;color-interpolation-filters:linearRGB;solid-color:#000000;solid-opacity:1;fill:#0000ff;fill-opacity:1;fill-rule:nonzero;stroke:none;stroke-width:1.99999988;stroke-linecap:round;stroke-linejoin:round;stroke-miterlimit:4;stroke-dasharray:none;stroke-dashoffset:0;stroke-opacity:1;color-rendering:auto;image-rendering:auto;shape-rendering:auto;text-rendering:auto;enable-background:accumulate"
         d="m 310.8961,513.32996 c -23.45118,-40.70414 -42.41035,-74.23569 -42.13148,-74.51456 0.27887,-0.27887 39.06638,-0.3634 86.19446,-0.18786 l 85.68743,0.31918 -42.8624,74.23689 c -23.57432,40.83028 -43.17449,74.21821 -43.55595,74.19537 -0.38145,-0.0228 -19.88088,-33.34489 -43.33206,-74.04902 z"
         id="path4276"
         transform="translate(0,308.26772)" />
      <path
         style="color:#000000;clip-rule:nonzero;display:inline;overflow:visible;visibility:visible;opacity:1;isolation:auto;mix-blend-mode:normal;color-interpolation:sRGB;color-interpolation-filters:linearRGB;solid-color:#000000;solid-opacity:1;fill:#0000ff;fill-opacity:1;fill-rule:nonzero;stroke:none;stroke-width:1.99999988;stroke-linecap:round;stroke-linejoin:round;stroke-miterlimit:4;stroke-dasharray:none;stroke-dashoffset:0;stroke-opacity:1;color-rendering:auto;image-rendering:auto;shape-rendering:auto;text-rendering:auto;enable-background:accumulate"
         d="m 712.14114,587.10988 c 1.57131,-2.95366 84.46584,-146.69401 84.91166,-147.2381 0.29994,-0.36604 86.39029,148.56252 86.39029,149.44744 0,0.3224 -38.87755,0.58619 -86.39457,0.58619 l -86.39456,0 1.48718,-2.79553 z"
         id="path4278"
         transform="translate(0,308.26772)" />
      <path
         style="color:#000000;clip-rule:nonzero;display:inline;overflow:visible;visibility:visible;opacity:1;isolation:auto;mix-blend-mode:normal;color-interpolation:sRGB;color-interpolation-filters:linearRGB;solid-color:#000000;solid-opacity:1;fill:#0000ff;fill-opacity:1;fill-rule:nonzero;stroke:none;stroke-width:1.99999988;stroke-linecap:round;stroke-linejoin:round;stroke-miterlimit:4;stroke-dasharray:none;stroke-dashoffset:0;stroke-opacity:1;color-rendering:auto;image-rendering:auto;shape-rendering:auto;text-rendering:auto;enable-background:accumulate"
         d="m 842.23333,512.87299 -43.04176,-74.5475 86.23303,0 c 47.42817,0 86.23303,0.31892 86.23303,0.70872 0,1.16974 -85.05578,148.34083 -85.74547,148.36447 -0.35039,0.012 -20.00586,-33.52456 -43.67883,-74.52569 z"
         id="path4280"
         transform="translate(0,308.26772)" />
      <path
         style="color:#000000;clip-rule:nonzero;display:inline;overflow:visible;visibility:visible;opacity:1;isolation:auto;mix-blend-mode:normal;color-interpolation:sRGB;color-interpolation-filters:linearRGB;solid-color:#000000;solid-opacity:1;fill:#0000ff;fill-opacity:1;fill-rule:nonzero;stroke:none;stroke-width:1.99999988;stroke-linecap:round;stroke-linejoin:round;stroke-miterlimit:4;stroke-dasharray:none;stroke-dashoffset:0;stroke-opacity:1;color-rendering:auto;image-rendering:auto;shape-rendering:auto;text-rendering:auto;enable-background:accumulate"
         d="m 457.75204,720.67415 c 7.00674,-12.1295 26.378,-45.67822 43.04725,-74.5527 23.28207,-40.32925 30.6341,-52.13785 31.7157,-50.9408 1.23707,1.36912 83.77189,143.9289 84.83494,146.53272 0.22779,0.55792 -38.45496,1.01441 -85.96163,1.01441 l -86.3758,0 12.73954,-22.05363 z"
         id="path4282"
         transform="translate(0,308.26772)" />
      <path
         style="color:#000000;clip-rule:nonzero;display:inline;overflow:visible;visibility:visible;opacity:1;isolation:auto;mix-blend-mode:normal;color-interpolation:sRGB;color-interpolation-filters:linearRGB;solid-color:#000000;solid-opacity:1;fill:#0000ff;fill-opacity:1;fill-rule:nonzero;stroke:none;stroke-width:1.99999988;stroke-linecap:round;stroke-linejoin:round;stroke-miterlimit:4;stroke-dasharray:none;stroke-dashoffset:0;stroke-opacity:1;color-rendering:auto;image-rendering:auto;shape-rendering:auto;text-rendering:auto;enable-background:accumulate"
         d="m 619.22333,739.99496 c -0.57352,-0.88868 -20.10671,-34.60305 -43.40708,-74.92082 l -42.36432,-73.30504 43.295,-0.32651 c 23.81225,-0.17958 62.79474,-0.17958 86.62774,0 l 43.33276,0.32651 -43.22067,74.92081 c -29.18094,50.58367 -43.5594,74.39595 -44.26343,73.30505 z"
         id="path4284"
         transform="translate(0,308.26772)" />
      <path
         style="color:#000000;clip-rule:nonzero;display:inline;overflow:visible;visibility:visible;opacity:1;isolation:auto;mix-blend-mode:normal;color-interpolation:sRGB;color-interpolation-filters:linearRGB;solid-color:#000000;solid-opacity:1;fill:#ff0000;fill-opacity:1;fill-rule:nonzero;stroke:none;stroke-width:1.99999988;stroke-linecap:round;stroke-linejoin:round;stroke-miterlimit:4;stroke-dasharray:none;stroke-dashoffset:0;stroke-opacity:1;color-rendering:auto;image-rendering:auto;shape-rendering:auto;text-rendering:auto;enable-background:accumulate"
         d="m 134.00419,513.66778 -43.101341,-74.72106 43.503041,-0.32661 c 23.92667,-0.17963 62.75377,-0.17963 86.28245,0 l 42.7794,0.32661 -42.33971,73.30504 c -23.28683,40.31778 -42.71833,73.94225 -43.1811,74.72106 -0.46277,0.77881 -20.237,-32.20846 -43.94274,-73.30504 z"
         id="path4286"
         transform="translate(0,308.26772)" />
      <path
         style="color:#000000;clip-rule:nonzero;display:inline;overflow:visible;visibility:visible;opacity:1;isolation:auto;mix-blend-mode:normal;color-interpolation:sRGB;color-interpolation-filters:linearRGB;solid-color:#000000;solid-opacity:1;fill:#ff0000;fill-opacity:1;fill-rule:nonzero;stroke:none;stroke-width:1.99999988;stroke-linecap:round;stroke-linejoin:round;stroke-miterlimit:4;stroke-dasharray:none;stroke-dashoffset:0;stroke-opacity:1;color-rendering:auto;image-rendering:auto;shape-rendering:auto;text-rendering:auto;enable-background:accumulate"
         d="m 268.42622,742.21662 c 0,-0.93488 83.53496,-145.4509 84.97335,-147.00443 1.08083,-1.16735 11.42647,15.8201 43.94974,72.16504 23.39488,40.53048 42.53616,74.06501 42.53616,74.52116 0,0.45617 -38.57833,0.82939 -85.72963,0.82939 -47.15129,0 -85.72962,-0.23002 -85.72962,-0.51116 z"
         id="path4288"
         transform="translate(0,308.26772)" />
      <path
         style="color:#000000;clip-rule:nonzero;display:inline;overflow:visible;visibility:visible;opacity:1;isolation:auto;mix-blend-mode:normal;color-interpolation:sRGB;color-interpolation-filters:linearRGB;solid-color:#000000;solid-opacity:1;fill:#ff0000;fill-opacity:1;fill-rule:nonzero;stroke:none;stroke-width:1.99999988;stroke-linecap:round;stroke-linejoin:round;stroke-miterlimit:4;stroke-dasharray:none;stroke-dashoffset:0;stroke-opacity:1;color-rendering:auto;image-rendering:auto;shape-rendering:auto;text-rendering:auto;enable-background:accumulate"
         d="m 399.71374,666.99468 c -23.69014,-41.03719 -43.07298,-74.89067 -43.07298,-75.22994 0,-0.33928 38.85789,-0.61687 86.35085,-0.61687 47.49297,0 86.35086,0.23269 86.35086,0.5171 0,0.53084 -80.47075,140.20669 -84.38204,146.46481 l -2.17372,3.47798 -43.07297,-74.61308 z"
         id="path4290"
         transform="translate(0,308.26772)" />
      <path
         style="color:#000000;clip-rule:nonzero;display:inline;overflow:visible;visibility:visible;opacity:1;isolation:auto;mix-blend-mode:normal;color-interpolation:sRGB;color-interpolation-filters:linearRGB;solid-color:#000000;solid-opacity:1;fill:#ff0000;fill-opacity:1;fill-rule:nonzero;stroke:none;stroke-width:1.99999988;stroke-linecap:round;stroke-linejoin:round;stroke-miterlimit:4;stroke-dasharray:none;stroke-dashoffset:0;stroke-opacity:1;color-rendering:auto;image-rendering:auto;shape-rendering:auto;text-rendering:auto;enable-background:accumulate"
         d="m 545.27151,569.06733 c 61.43313,-106.44595 74.16197,-128.25692 74.85053,-128.25692 0.43631,0 19.74617,32.80489 42.91078,72.89976 23.16463,40.09487 42.56461,73.64125 43.11108,74.5475 0.82155,1.36245 -14.06044,1.64774 -85.95254,1.64774 l -86.94612,0 12.02627,-20.83808 z"
         id="path4292"
         transform="translate(0,308.26772)" />
      <path
         style="color:#000000;clip-rule:nonzero;display:inline;overflow:visible;visibility:visible;opacity:1;isolation:auto;mix-blend-mode:normal;color-interpolation:sRGB;color-interpolation-filters:linearRGB;solid-color:#000000;solid-opacity:1;fill:#ff0000;fill-opacity:1;fill-rule:nonzero;stroke:none;stroke-width:1.99999988;stroke-linecap:round;stroke-linejoin:round;stroke-miterlimit:4;stroke-dasharray:none;stroke-dashoffset:0;stroke-opacity:1;color-rendering:auto;image-rendering:auto;shape-rendering:auto;text-rendering:auto;enable-background:accumulate"
         d="m 665.59973,513.79694 c -23.69645,-41.04736 -42.89163,-74.8244 -42.65595,-75.06007 0.23567,-0.23568 39.03723,-0.28487 86.22569,-0.10933 l 85.79718,0.31918 -43.14123,74.7409 -43.14124,74.7409 -43.08445,-74.63158 z"
         id="path4294"
         transform="translate(0,308.26772)" />
      <path
         style="color:#000000;clip-rule:nonzero;display:inline;overflow:visible;visibility:visible;opacity:1;isolation:auto;mix-blend-mode:normal;color-interpolation:sRGB;color-interpolation-filters:linearRGB;solid-color:#000000;solid-opacity:1;fill:#ff0000;fill-opacity:1;fill-rule:nonzero;stroke:none;stroke-width:1.99999988;stroke-linecap:round;stroke-linejoin:round;stroke-miterlimit:4;stroke-dasharray:none;stroke-dashoffset:0;stroke-opacity:1;color-rendering:auto;image-rendering:auto;shape-rendering:auto;text-rendering:auto;enable-background:accumulate"
         d="m 800.19838,741.99529 c 0,-1.20068 85.05403,-148.32635 85.72963,-148.29432 0.57748,0.0274 84.60859,145.31932 85.52254,147.87069 0.25293,0.70603 -33.00149,1.15612 -85.419,1.15612 -47.20824,0 -85.83317,-0.32962 -85.83317,-0.73249 z"
         id="path4296"
         transform="translate(0,308.26772)" />
      <path
         style="fill:#000000;fill-opacity:1;fill-rule:evenodd;stroke:#000000;stroke-width:1px;stroke-linecap:butt;stroke-linejoin:miter;stroke-opacity:1"
         d="M 135.42796,921.90408 78.274875,1023.7857 28.576542,1001.4214 82.00225,904.50966 Z"
         id="path4335" />
      <path
         style="fill:#000000;fill-opacity:1;fill-rule:evenodd;stroke:#000000;stroke-width:1px;stroke-linecap:butt;stroke-linejoin:miter;stroke-opacity:1"
         d="m 923.14654,873.4482 53.42571,-82.00225 31.06145,21.12179 -52.18324,74.5475 z"
         id="path4337" />
    </g>
    <use
       height="100%"
       width="100%"
       transform="translate(0,-344.16096)"
       id="use4409"
       xlink:href="#g4339"
       y="0"
       x="0" />
  </g>
</svg>
